<svg width="1812" height="707" viewBox="0 0 1812 707" fill="none" xmlns="http://www.w3.org/2000/svg">
<path d="M910.007 28.6445C910.007 28.6445 912.382 31.4644 917.132 37.1043C921.898 42.7247 926.958 48.1754 932.314 53.4563C937.658 58.7352 943.369 64.1278 949.446 69.634C955.525 75.1296 961.943 80.7338 968.699 86.4469C975.443 92.158 982.803 98.0705 990.78 104.184C998.756 110.298 1007.26 116.443 1016.29 122.62C1025.32 128.796 1035.02 135.138 1045.38 141.645C1055.73 148.15 1066.32 154.72 1077.15 161.354C1087.99 167.99 1098.92 174.403 1109.94 180.594C1120.97 186.775 1132.08 192.806 1143.29 198.686C1154.48 204.565 1166 210.588 1177.84 216.757C1189.68 222.913 1202.51 229.26 1216.35 235.799C1230.18 242.337 1244.24 248.471 1258.52 254.201C1272.78 259.919 1288.16 266.122 1304.63 272.811C1321.11 279.49 1338.02 286.199 1355.36 292.938C1372.71 299.68 1390.53 306.642 1408.82 313.825C1427.11 321.019 1445.46 328.271 1463.85 335.582C1482.26 342.906 1499.32 349.713 1515.03 356.003C1530.74 362.293 1546.21 368.58 1561.46 374.867C1576.7 381.142 1590.89 386.944 1604 392.273C1617.13 397.592 1629.94 402.581 1642.45 407.239C1654.96 411.91 1666.62 416.006 1677.42 419.527C1688.22 423.056 1697.94 426.086 1706.61 428.615C1715.28 431.154 1722.39 433.041 1727.93 434.274C1733.49 435.508 1738.46 436.469 1742.84 437.155C1747.22 437.831 1750.04 438.483 1751.3 439.111C1752.55 439.727 1753.66 440.523 1754.64 441.501C1755.61 442.479 1756.4 443.578 1756.99 444.799C1757.58 446.019 1757.96 447.296 1758.11 448.627C1758.27 449.972 1758.2 451.303 1757.89 452.62C1757.58 453.938 1757.06 455.18 1756.33 456.347C1755.6 457.503 1754.69 458.523 1753.61 459.407C1752.53 460.28 1751.33 460.974 1750.02 461.486C1748.7 461.997 1747.33 462.289 1745.91 462.362C1744.5 462.448 1743.11 462.316 1741.74 461.967C1740.37 461.607 1739.11 461.054 1737.94 460.309C1736.77 459.563 1735.75 458.655 1734.88 457.585C1734.03 456.518 1733.37 455.342 1732.92 454.058C1732.47 452.784 1732.24 451.473 1732.24 450.124C1732.25 448.774 1732.47 447.459 1732.93 446.178C1733.38 444.896 1734.03 443.716 1734.89 442.637C1735.75 441.56 1736.77 440.643 1737.94 439.885C1739.12 439.116 1740.39 438.547 1741.75 438.176C1743.11 437.805 1744.51 437.656 1745.93 437.727C1747.35 437.786 1748.71 438.062 1750.02 438.555C1751.34 439.051 1752.53 439.73 1753.62 440.593C1754.7 441.457 1755.61 442.467 1756.34 443.623C1757.07 444.769 1757.59 445.998 1757.88 447.311C1758.19 448.636 1758.27 449.965 1758.12 451.3C1757.96 452.645 1757.59 453.935 1757 455.169C1756.39 456.392 1755.6 457.493 1754.63 458.473C1753.65 459.465 1752.54 460.277 1751.29 460.91C1750.03 461.554 1748.71 461.987 1747.32 462.209C1745.91 462.44 1744.51 462.45 1743.11 462.24C1741.72 462.029 1741.02 461.924 1741.02 461.924C1741.02 461.924 1739.02 460.95 1735.02 459.003C1731.03 457.047 1726.48 454.965 1721.37 452.758C1716.26 450.55 1709.37 448.043 1700.68 445.235C1692 442.437 1682.14 439.231 1671.11 435.616C1660.07 432.009 1648.21 427.845 1635.53 423.123C1622.86 418.402 1609.94 413.374 1596.8 408.04C1583.64 402.704 1569.47 396.909 1554.28 390.656C1539.09 384.411 1523.64 378.145 1507.94 371.858C1492.24 365.581 1475.21 358.794 1456.83 351.497C1438.45 344.2 1420.12 336.967 1401.84 329.796C1383.56 322.639 1365.71 315.681 1348.27 308.924C1330.84 302.169 1313.89 295.464 1297.42 288.809C1280.95 282.167 1265.41 275.922 1250.79 270.076C1236.17 264.242 1221.82 258.024 1207.74 251.421C1193.67 244.831 1180.69 238.481 1168.81 232.37C1156.92 226.26 1145.28 220.265 1133.89 214.385C1122.49 208.506 1111.15 202.473 1099.84 196.288C1088.55 190.093 1077.41 183.738 1066.43 177.221C1055.44 170.704 1044.6 164.235 1033.91 157.814C1023.22 151.393 1013.12 145.135 1003.61 139.041C994.086 132.945 985.034 126.898 976.455 120.9C967.875 114.902 959.956 109.053 952.699 103.352C945.432 97.6381 938.56 91.8991 932.081 86.1349C925.605 80.3599 919.469 74.4785 913.674 68.4904C907.881 62.4917 902.78 56.5473 898.37 50.657C893.971 44.7687 891.54 41.4467 891.075 40.691C890.622 39.9372 890.263 39.1446 890 38.3133C889.749 37.4732 889.606 36.6187 889.571 35.7497C889.537 34.87 889.61 34.0089 889.79 33.1664C889.972 32.3132 890.258 31.4893 890.649 30.6947C891.04 29.9 891.524 29.1604 892.102 28.4758C892.689 27.8039 893.349 27.2 894.083 26.6643C894.815 26.1393 895.599 25.7008 896.435 25.3489C897.283 24.999 898.162 24.7541 899.073 24.6142C899.974 24.4616 900.883 24.4155 901.8 24.4758C902.703 24.5448 903.593 24.711 904.469 24.9745C905.332 25.2466 906.153 25.6164 906.93 26.0838C907.71 26.5405 908.42 27.0847 909.06 27.7162C909.692 28.3351 910.007 28.6445 910.007 28.6445Z" fill="#211F1D"/>
<path d="M53.1639 424.203C53.1639 424.203 58.9819 423.875 70.6179 423.218C82.254 422.562 93.7317 421.732 105.051 420.73C116.371 419.728 127.118 418.51 137.293 417.076C147.482 415.651 157.633 413.918 167.746 411.875C177.859 409.833 188.216 407.708 198.819 405.502C209.411 403.309 219.392 400.701 228.761 397.678C238.131 394.655 247.8 391.364 257.769 387.804C267.739 384.256 278.962 380.255 291.438 375.8C303.911 371.334 316.896 366.691 330.391 361.87C343.886 357.048 357.937 351.916 372.544 346.473C387.149 341.018 401.875 335.258 416.72 329.193C431.556 323.141 446.241 316.968 460.774 310.673C475.298 304.391 489.452 298.374 503.235 292.623C517.019 286.872 529.875 281.07 541.803 275.217C553.722 269.376 564.993 263.527 575.617 257.668C586.253 251.819 596.357 245.906 605.927 239.93C615.496 233.942 624.521 228.148 633.003 222.547C641.485 216.946 649.733 211.425 657.748 205.984C665.775 200.543 673.625 194.965 681.299 189.252C688.986 183.549 697.181 177.483 705.884 171.053C714.588 164.634 723.739 158.034 733.336 151.253C742.932 144.471 752.325 137.61 761.515 130.668C770.703 123.714 779.796 116.79 788.794 109.895C797.806 103.009 805.933 96.3811 813.177 90.0107C820.433 83.6503 826.835 77.5847 832.381 71.8138C837.929 66.0544 842.425 60.7702 845.871 55.9613C849.328 51.151 852.893 45.9963 856.567 40.4973C860.242 34.9982 862.559 31.4411 863.519 29.8259C864.481 28.2221 865.552 26.8959 866.732 25.8471C867.912 24.7983 869.233 23.9651 870.695 23.3473C872.159 22.741 873.687 22.3828 875.278 22.2725C876.87 22.1623 878.445 22.3041 880.003 22.6978C881.551 23.1043 883.004 23.7431 884.361 24.6144C885.718 25.4856 886.899 26.5467 887.902 27.7976C888.917 29.0472 889.704 30.4229 890.266 31.9247C890.827 33.4265 891.137 34.9701 891.198 36.5554C891.248 38.1536 891.048 39.7064 890.596 41.2138C890.135 42.7341 889.447 44.1362 888.533 45.4204C887.606 46.6944 886.497 47.787 885.204 48.6982C883.913 49.6208 882.507 50.3016 880.984 50.7406C879.464 51.191 877.901 51.3849 876.297 51.3223C874.706 51.2697 873.159 50.956 871.657 50.3812C870.145 49.8192 868.765 49.0322 867.516 48.02C866.267 47.0079 865.204 45.8281 864.327 44.4806C863.461 43.1317 862.825 41.6795 862.42 40.1241C862.027 38.5788 861.889 37.0145 862.003 35.4314C862.118 33.8482 862.486 32.3276 863.107 30.8694C863.73 29.4227 864.571 28.1125 865.628 26.939C866.686 25.7655 867.907 24.799 869.29 24.0396C870.673 23.2687 872.148 22.7424 873.715 22.4607C875.283 22.179 876.858 22.158 878.441 22.3976C880.033 22.6244 881.544 23.0993 882.974 23.8223C884.415 24.5439 885.705 25.4755 886.845 26.6171C887.984 27.7587 888.911 29.0479 889.626 30.4847C890.351 31.9087 890.824 33.4094 891.046 34.9869C891.282 36.5744 891.253 38.1472 890.96 39.7053C890.679 41.262 890.145 42.727 889.361 44.1002C888.587 45.472 888.2 46.1579 888.2 46.1579C888.2 46.1579 887.516 46.7983 886.148 48.079C884.779 49.3597 881.538 52.3131 876.425 56.9392C871.324 61.5753 866.457 66.2124 861.823 70.8505C857.176 75.4786 851.755 80.531 845.562 86.0078C839.356 91.4745 832.479 97.5102 824.93 104.115C817.383 110.731 809.095 117.495 800.064 124.406C791.033 131.317 781.844 138.305 772.497 145.371C763.161 152.435 753.743 159.323 744.241 166.035C734.753 172.757 725.661 179.32 716.966 185.726C708.274 192.143 699.983 198.273 692.094 204.117C684.206 209.961 676.216 215.625 668.126 221.109C660.048 226.603 651.704 232.188 643.093 237.863C634.494 243.548 625.271 249.465 615.422 255.614C605.573 261.763 595.206 267.83 584.321 273.813C573.437 279.808 561.878 285.803 549.643 291.798C537.397 297.794 524.415 303.657 510.699 309.389C496.993 315.107 482.819 321.144 468.177 327.498C453.545 333.839 438.724 340.082 423.715 346.224C408.706 352.367 393.866 358.181 379.195 363.667C364.512 369.155 350.426 374.326 336.936 379.182C323.455 384.024 310.486 388.689 298.027 393.177C285.568 397.664 274.273 401.738 264.144 405.398C254.003 409.06 243.943 412.515 233.965 415.762C223.987 419.009 213.696 421.776 203.094 424.064C192.493 426.363 181.962 428.624 171.502 430.848C161.055 433.082 150.589 435.016 140.104 436.65C129.629 438.272 118.65 439.709 107.169 440.964C95.6735 442.208 84.124 443.313 72.5201 444.28C60.9161 445.247 54.6799 445.707 53.8114 445.66C52.9446 445.625 52.0911 445.478 51.2509 445.219C50.4123 444.971 49.6124 444.625 48.8512 444.182C48.0915 443.751 47.395 443.23 46.7617 442.62C46.1284 442.011 45.5795 441.339 45.1149 440.604C44.6373 439.859 44.2587 439.074 43.9792 438.247C43.6882 437.422 43.5052 436.578 43.4302 435.715C43.3552 434.852 43.38 433.995 43.5045 433.143C43.6405 432.29 43.8737 431.465 44.2043 430.67C44.5462 429.873 44.9715 429.13 45.48 428.441C46.0001 427.751 46.5952 427.139 47.2653 426.605C47.9339 426.059 48.6619 425.605 49.4495 425.243C50.2256 424.882 51.044 424.615 51.9047 424.442C52.7442 424.283 53.1639 424.203 53.1639 424.203Z" fill="#211F1D"/>
<path d="M180.218 450.971C180.218 450.971 183.975 450.281 191.488 448.899C199.028 447.505 206.36 446.162 213.484 444.869C220.609 443.589 228.062 442.48 235.843 441.542C243.637 440.617 251.632 439.711 259.828 438.823C268.024 437.924 277.753 437.284 289.016 436.903C300.292 436.523 313.41 436.099 328.369 435.63C343.328 435.161 358.756 434.628 374.653 434.033C390.549 433.437 406.405 432.93 422.222 432.512C438.038 432.094 453.84 431.834 469.63 431.732C485.419 431.631 501.021 431.587 516.436 431.599C531.85 431.599 548.824 431.359 567.359 430.877C585.881 430.395 606.022 430.06 627.785 429.869C649.547 429.692 673.298 429.312 699.038 428.729C724.778 428.133 753.276 427.721 784.533 427.493C815.791 427.252 847.718 426.821 880.314 426.2C912.924 425.579 945.742 425.142 978.767 424.889C1011.79 424.635 1046 424.458 1081.38 424.356C1116.77 424.255 1151.55 424.179 1185.7 424.128C1219.85 424.09 1253.17 424.065 1285.66 424.052C1318.16 424.04 1349.88 424.033 1380.83 424.033C1411.78 424.021 1440.3 424.014 1466.39 424.014C1492.46 424.014 1515.12 424.021 1534.35 424.033C1553.58 424.033 1568.69 423.989 1579.67 423.9C1590.66 423.811 1600.22 423.507 1608.33 422.988C1616.45 422.468 1621.17 422.31 1622.5 422.512C1623.83 422.715 1625.1 423.121 1626.29 423.729C1627.47 424.325 1628.53 425.085 1629.47 426.01C1630.39 426.935 1631.13 427.975 1631.7 429.128C1632.26 430.281 1632.61 431.498 1632.76 432.778C1632.91 434.045 1632.84 435.3 1632.56 436.542C1632.26 437.784 1631.77 438.95 1631.07 440.04C1630.38 441.143 1629.51 442.106 1628.48 442.93C1627.46 443.754 1626.33 444.4 1625.07 444.869C1623.82 445.35 1622.52 445.623 1621.17 445.686C1619.83 445.75 1618.51 445.61 1617.21 445.268C1615.91 444.939 1614.7 444.413 1613.58 443.69C1612.46 442.98 1611.5 442.112 1610.68 441.086C1609.87 440.072 1609.24 438.963 1608.82 437.759C1608.39 436.555 1608.17 435.313 1608.17 434.033C1608.17 432.753 1608.39 431.511 1608.82 430.307C1609.24 429.09 1609.87 427.975 1610.68 426.961C1611.5 425.947 1612.47 425.085 1613.6 424.375C1614.71 423.653 1615.91 423.121 1617.21 422.778C1618.51 422.436 1619.83 422.303 1621.17 422.379C1622.52 422.443 1623.82 422.715 1625.07 423.197C1626.33 423.666 1627.46 424.312 1628.48 425.136C1629.51 425.96 1630.38 426.923 1631.07 428.025C1631.77 429.115 1632.26 430.281 1632.56 431.523C1632.84 432.765 1632.91 434.02 1632.76 435.287C1632.61 436.555 1632.26 437.772 1631.7 438.938C1631.13 440.091 1630.39 441.13 1629.47 442.055C1628.53 442.98 1627.46 443.741 1626.27 444.337C1625.08 444.945 1623.82 445.35 1622.5 445.553C1621.17 445.756 1620.51 445.857 1620.51 445.857C1620.51 445.857 1616.45 445.598 1608.33 445.078C1600.22 444.558 1590.66 444.254 1579.67 444.165C1568.69 444.089 1553.58 444.051 1534.35 444.051C1515.12 444.051 1492.46 444.058 1466.39 444.07C1440.3 444.07 1411.79 444.083 1380.85 444.108C1349.9 444.121 1318.18 444.14 1285.68 444.165C1253.19 444.191 1219.88 444.235 1185.76 444.299C1151.62 444.362 1116.87 444.457 1081.52 444.584C1046.16 444.71 1012.02 444.92 979.088 445.211C946.144 445.503 913.326 445.99 880.636 446.675C847.959 447.347 816.052 447.834 784.915 448.139C753.778 448.443 725.293 448.937 699.46 449.621C673.613 450.306 649.889 450.806 628.287 451.123C606.685 451.44 586.53 451.934 567.821 452.606C549.112 453.291 532.091 453.753 516.757 453.994C501.436 454.247 485.988 454.602 470.413 455.059C454.852 455.502 439.243 456.174 423.588 457.074C407.945 457.961 392.216 459.025 376.4 460.267C360.584 461.509 345.324 462.802 330.619 464.146C315.914 465.489 303.098 466.845 292.17 468.214C281.242 469.595 271.613 470.66 263.283 471.408C254.967 472.168 247.159 472.764 239.86 473.195C232.575 473.638 225.336 474.202 218.145 474.887C210.953 475.558 203.541 476.262 195.907 476.997C188.26 477.745 183.854 478.131 182.689 478.156C181.537 478.182 180.392 478.08 179.254 477.852C178.116 477.611 177.024 477.25 175.98 476.769C174.935 476.274 173.964 475.672 173.067 474.963C172.183 474.253 171.393 473.454 170.696 472.567C170.013 471.68 169.451 470.723 169.009 469.697C168.567 468.683 168.259 467.631 168.085 466.541C167.924 465.438 167.897 464.348 168.005 463.271C168.112 462.169 168.359 461.098 168.748 460.058C169.136 459.019 169.645 458.037 170.275 457.112C170.917 456.187 171.661 455.35 172.504 454.602C173.361 453.842 174.299 453.195 175.317 452.663C176.334 452.118 177.406 451.7 178.531 451.408C179.656 451.117 180.218 450.971 180.218 450.971Z" fill="#211F1D"/>
<path d="M516.603 404.944C527.772 391.143 545.972 378.976 565.357 351.867ZM516.603 404.944C537.053 388.994 549.085 367.912 565.357 351.867ZM536.892 429.202C546.394 410.115 573.453 400.04 608.065 351.734ZM536.892 429.202C555.996 408.613 576.104 385.61 608.065 351.734ZM579.6 429.069C595.55 402.169 615.095 384.869 649.446 353.026ZM579.6 429.069C595.067 408.518 618.912 391.466 649.446 353.026ZM622.307 428.955C637.835 402.891 649.627 389.165 681.628 364.376ZM622.307 428.955C642.074 407.245 668.108 379.09 681.628 364.376ZM665.015 428.822C668.169 423.822 681.447 412.225 680.844 411.598ZM665.015 428.822C667.345 423.194 671.523 421.16 680.844 411.598Z" stroke="#FFC9C9" stroke-width="4" stroke-linecap="round"/>
<path d="M535.345 350.289C579.097 345.289 610.937 350.289 660.997 350.289M535.345 350.289C568.812 353.292 603.746 350.536 660.997 350.289M535.345 350.289C523.292 356.657 506.619 357.646 514.453 370.06M535.345 350.289C517.286 349.966 505.474 360.535 514.453 370.06M660.997 350.289C680.865 355.231 683.235 350.897 681.889 370.06M660.997 350.289C684.059 352.38 688.056 356.296 681.889 370.06M681.889 370.06C679.86 378.71 682.994 395.116 681.889 409.602M681.889 370.06C685.746 378.71 682.793 384.356 681.889 409.602M681.889 409.602C681.548 428.365 681.387 429.81 660.997 429.373M681.889 409.602C683.597 429.05 680.905 423.841 660.997 429.373M660.997 429.373C627.51 424.734 584.983 435.97 535.345 429.373M660.997 429.373C632.673 425.552 607.161 431.217 535.345 429.373M535.345 429.373C522.81 423.575 511.159 419.335 514.453 409.602M535.345 429.373C517.989 437.795 511.922 420.894 514.453 409.602M514.453 409.602C515.518 393.937 511.581 386.656 514.453 370.06M514.453 409.602C516.643 394.412 511.882 385.534 514.453 370.06" stroke="#F08C00" stroke-width="8" stroke-linecap="round"/>
<path d="M752.607 337.817C764.259 335.916 763.355 327.932 775.006 313.427ZM752.607 337.817C757.529 330.213 762.531 323.236 775.006 313.427ZM734.689 403.689C756.103 375.82 780.349 352.36 817.714 313.313ZM734.689 403.689C765.243 364.698 797.786 334.433 817.714 313.313ZM753.672 429.391C788.063 396.009 806.123 363.748 857.79 316.05ZM753.672 429.391C782.017 396.408 811.024 361.505 857.79 316.05ZM796.38 429.258C820.024 400.8 847.022 380.458 874.141 344.604ZM796.38 429.258C809.377 415.305 833.222 394.146 874.141 344.604ZM833.824 434.867C839.911 419.05 843.105 420.019 860.18 406.16ZM833.824 434.867C836.556 430.798 848.047 417.662 860.18 406.16Z" stroke="#A5D8FF" stroke-width="4" stroke-linecap="round"/>
<path d="M759.658 301.317C779.506 293.58 804.616 308.066 825.789 301.317M759.658 301.317C772.053 304.092 784.809 302.838 825.789 301.317M759.658 301.317C734.066 305.537 728.281 315.347 726.593 332.608M759.658 301.317C745.336 305.366 724.142 314.548 726.593 332.608M825.789 301.317C853.25 296.906 856.404 306.906 858.834 332.608M825.789 301.317C841.096 293.941 853.109 303.161 858.834 332.608M858.834 332.608C852.527 348.387 856.243 358.71 858.834 396.275M858.834 332.608C858.191 347.323 860.903 368.424 858.834 396.275M858.834 396.275C866.649 423.346 846.38 422.491 825.789 427.566M858.834 396.275C850.719 422.909 845.476 433.27 825.789 427.566M825.789 427.566C804.777 420.228 787.461 425.342 759.658 427.566M825.789 427.566C813.274 430.057 791.619 424.164 759.658 427.566M759.658 427.566C732.861 422.624 720.486 424.316 726.593 396.275M759.658 427.566C740.414 429.962 728.2 417.282 726.593 396.275M726.593 396.275C731.414 379.051 726.854 352.627 726.593 332.608M726.593 396.275C728.723 377.226 723.078 350.992 726.593 332.608" stroke="#1971C2" stroke-width="8" stroke-linecap="round"/>
<path d="M909.851 231.179C915.127 231.55 929.37 220.623 947.812 227.251ZM909.851 231.179C918.944 226.511 926.538 231.695 947.812 227.251ZM855.31 267.412C897.257 272.125 932.269 261.738 979.194 254.613ZM855.31 267.412C900.718 262.981 945.997 259.658 979.194 254.613ZM860.713 297.453C896.263 289.227 943.689 294.774 1010.58 281.975ZM860.713 297.453C898.742 288.987 937.989 287.071 1010.58 281.975ZM892.095 324.815C942.051 317.336 1006.66 317.393 1041.96 309.337ZM892.095 324.815C926.126 324.45 956.629 320.366 1041.96 309.337ZM923.463 352.191C980.019 347.726 1040.55 338.727 1081.34 335.879ZM923.463 352.191C956.783 346.63 992.688 346.196 1081.34 335.879ZM954.845 379.553C1010.35 377.28 1057.3 365.215 1086.73 365.934ZM954.845 379.553C992.679 373.409 1040.42 373.104 1086.73 365.934ZM986.227 406.915C1009.76 409.439 1025.14 405.845 1054.18 399.903ZM986.227 406.915C1003.27 408.602 1013.59 403.969 1054.18 399.903Z" stroke="#FFC9C9" stroke-width="4" stroke-linecap="round"/>
<path d="M946.085 208.765C991.623 242.266 1049.91 287.476 1081.08 327.252M946.085 208.765C983.426 242.11 1025.84 278.633 1081.08 327.252M946.085 208.765C921.59 195.94 916.953 202.961 902.036 210.387M946.085 208.765C935.677 199.889 924.389 193.67 902.036 210.387M1081.08 327.252C1094.21 331.627 1100.25 351.295 1082.68 368.939M1081.08 327.252C1096.12 348.446 1105.7 356.854 1082.68 368.939M1082.68 368.939C1067.48 384.168 1050.51 397.066 1040.24 412.234M1082.68 368.939C1072.71 381.539 1057.78 390.433 1040.24 412.234M1040.24 412.234C1017.95 427.832 1011.39 436.053 996.195 413.856M1040.24 412.234C1032.42 421.862 1012.66 430.772 996.195 413.856M996.195 413.856C958.918 384.411 912.986 343.577 861.196 295.369M996.195 413.856C954.96 379.093 914.28 341.726 861.196 295.369M861.196 295.369C849.607 278.314 840.489 262.649 859.598 253.682M861.196 295.369C839.805 280.801 850.767 263.697 859.598 253.682M859.598 253.682C877.709 247.605 894.397 224.045 902.036 210.387M859.598 253.682C872.846 236.089 888.412 227.805 902.036 210.387" stroke="#E03131" stroke-width="8" stroke-linecap="round"/>
<path d="M1124.97 377.679C1158.36 354.923 1170.81 338.422 1199.56 297.226M1132.7 376.5C1151.33 352.585 1170.33 334.886 1205.36 295.344M1144.86 404.807C1184.41 374.58 1209.3 342.205 1229.69 317.415M1148.47 409.731C1165.95 381.101 1193.27 352.376 1234.51 313.176M1177.16 425.738C1187.59 397.127 1209.38 370.303 1251.51 342.148M1172.7 422.544C1205.56 390.283 1229.67 361.159 1252.35 336.426M1224.75 416.328C1229.57 397.811 1243.05 387.184 1264.24 374.675M1222.04 413.286C1232.64 405.72 1243.05 394.275 1256.77 374.523" stroke="#99E9F2" stroke-opacity="0.6" stroke-width="4" stroke-linecap="round"/>
<path d="M1245.18 321.503C1254.24 330.172 1263 345.551 1264.08 357.813C1265.19 370.094 1260.71 384.371 1251.75 395.15C1242.77 405.929 1223.97 417.887 1210.29 422.525C1196.63 427.164 1181.86 426.574 1169.71 423.02C1157.55 419.465 1144.5 411.461 1137.38 401.195C1130.25 390.949 1126.52 374.828 1126.92 361.52C1127.34 348.213 1131.94 331.768 1139.86 321.351C1147.75 310.933 1162.01 303.557 1174.39 299.051C1186.76 294.565 1200.68 286.447 1214.08 294.413C1227.46 302.378 1247.87 335.057 1254.74 346.825C1261.59 358.592 1255.1 365.855 1255.22 364.98M1164.1 296.789C1176.46 290.192 1197.83 288.462 1211.85 292.378C1225.87 296.295 1241.02 309.583 1248.19 320.324C1255.36 331.084 1253.96 345.152 1254.86 356.863C1255.76 368.573 1260.45 379.979 1253.6 390.549C1246.75 401.119 1227.16 415.51 1213.82 420.263C1200.48 425.016 1185.84 422.639 1173.58 419.103C1161.35 415.548 1148.81 409.18 1140.36 399.047C1131.9 388.895 1122.94 370.189 1122.84 358.288C1122.76 346.407 1131.72 337.263 1139.8 327.7C1147.89 318.119 1166.47 304.659 1171.35 300.819C1176.24 296.979 1169.16 303.005 1169.1 304.621" stroke="#0C8599" stroke-opacity="0.6" stroke-width="8" stroke-linecap="round"/>
<path d="M317.903 481.769C320.69 481.769 324.43 483.015 329.123 485.509C333.963 488.002 338.143 490.935 341.663 494.309C345.33 497.682 347.163 500.615 347.163 503.109C347.163 504.429 345.77 510.295 342.983 520.709C337.85 539.189 334.036 555.322 331.543 569.109C330.076 577.762 328.536 589.129 326.923 603.209C325.456 615.235 324.136 623.669 322.963 628.509C321.936 633.349 320.25 635.769 317.903 635.769C314.53 635.769 310.496 634.595 305.803 632.249C301.256 629.755 297.223 626.822 293.703 623.449C290.33 620.075 288.643 617.289 288.643 615.089C288.496 613.035 288.936 609.149 289.963 603.429C291.136 597.562 292.456 591.109 293.923 584.069L295.903 574.609C282.41 576.662 269.136 578.129 256.083 579.009C254.616 588.835 253.59 597.049 253.003 603.649C251.536 615.529 250.216 623.889 249.043 628.729C248.016 633.422 246.33 635.769 243.983 635.769C240.61 635.769 236.576 634.595 231.883 632.249C227.336 629.755 223.303 626.822 219.783 623.449C216.41 620.075 214.723 617.289 214.723 615.089C214.576 612.742 215.236 607.829 216.703 600.349C218.316 592.722 219.343 587.809 219.783 585.609C220.37 582.675 221.47 577.322 223.083 569.549C224.696 561.629 226.016 554.295 227.043 547.549L228.803 537.209C231.59 520.782 234.156 507.435 236.503 497.169C238.996 486.902 241.49 481.769 243.983 481.769C246.77 481.769 250.51 483.015 255.203 485.509C260.043 488.002 264.223 490.935 267.743 494.309C271.41 497.682 273.243 500.615 273.243 503.109C273.243 504.429 271.85 510.295 269.063 520.709C268.476 523.055 267.45 527.015 265.983 532.589C264.516 538.162 263.196 543.369 262.023 548.209C275.663 547.182 288.863 545.789 301.623 544.029C301.916 541.975 302.21 540.362 302.503 539.189C305.143 522.909 307.71 509.269 310.203 498.269C312.696 487.269 315.263 481.769 317.903 481.769ZM417.594 479.569C428.301 479.569 438.421 482.135 447.954 487.269C457.634 492.402 465.334 499.222 471.054 507.729C476.921 516.089 479.854 524.815 479.854 533.909C479.854 548.135 476.041 563.389 468.414 579.669C460.787 595.802 451.107 609.369 439.374 620.369C427.787 631.369 416.347 636.869 405.054 636.869C399.187 636.869 392.587 634.449 385.254 629.609C378.067 624.622 371.907 618.755 366.774 612.009C361.641 605.115 359.074 599.029 359.074 593.749C359.074 585.389 361.567 571.015 366.554 550.629C371.541 530.095 376.161 514.989 380.414 505.309C385.254 503.842 389.801 503.109 394.054 503.109C396.987 503.109 399.334 503.402 401.094 503.989C400.801 498.562 402.121 493.575 405.054 489.029C407.987 484.482 412.167 481.329 417.594 479.569ZM394.934 606.729C409.014 601.595 420.821 591.769 430.354 577.249C439.887 562.582 446.634 546.522 450.594 529.069C446.487 526.135 441.134 523.715 434.534 521.809C428.081 519.902 421.114 518.875 413.634 518.729C413.927 520.195 414.221 522.395 414.514 525.329C401.021 550.555 394.494 577.689 394.934 606.729ZM523.477 635.769C520.104 635.769 516.071 634.595 511.377 632.249C506.831 629.755 502.797 626.822 499.277 623.449C495.904 620.075 494.217 617.289 494.217 615.089C494.071 612.742 494.731 607.829 496.197 600.349C497.811 592.722 498.837 587.809 499.277 585.609C499.864 582.675 500.964 577.322 502.577 569.549C504.191 561.629 505.511 554.295 506.537 547.549L508.297 537.209C511.084 520.782 513.651 507.435 515.997 497.169C518.491 486.902 520.984 481.769 523.477 481.769C525.971 481.769 529.344 482.795 533.597 484.849C537.997 486.902 542.104 489.542 545.917 492.769C549.731 495.849 552.297 498.782 553.617 501.569C555.964 506.849 559.044 518.142 562.857 535.449C565.497 547.475 567.477 555.762 568.797 560.309C575.104 550.775 583.171 536.182 592.997 516.529C599.304 504.062 604.071 495.189 607.297 489.909C610.671 484.482 613.677 481.769 616.317 481.769C619.104 481.769 622.844 483.015 627.537 485.509C632.377 488.002 636.557 490.935 640.077 494.309C643.744 497.682 645.577 500.615 645.577 503.109C645.577 505.162 644.697 510.955 642.937 520.489C641.177 529.875 640.077 535.742 639.637 538.089L633.917 569.109C632.451 577.762 630.911 589.129 629.297 603.209C627.831 615.235 626.511 623.669 625.337 628.509C624.311 633.349 622.624 635.769 620.277 635.769C616.904 635.769 612.871 634.595 608.177 632.249C603.631 629.755 599.597 626.822 596.077 623.449C592.704 620.075 591.017 617.289 591.017 615.089C590.871 613.182 591.384 609.149 592.557 602.989C593.877 596.682 595.344 589.569 596.957 581.649C598.277 575.342 599.011 571.749 599.157 570.869L607.077 546.449L603.997 545.349L601.797 549.749C596.077 561.482 591.457 570.649 587.937 577.249C584.564 583.702 581.777 588.322 579.577 591.109C578.111 592.869 575.471 594.335 571.657 595.509C567.844 596.535 564.104 597.049 560.437 597.049C556.624 597.049 554.057 596.389 552.737 595.069C551.417 593.895 550.244 591.475 549.217 587.809C548.337 583.995 547.091 578.129 545.477 570.209C545.184 568.595 544.377 564.709 543.057 558.549C541.737 552.242 540.271 546.522 538.657 541.389L537.117 569.109C535.651 577.762 534.111 589.129 532.497 603.209C531.031 615.235 529.711 623.669 528.537 628.509C527.511 633.349 525.824 635.769 523.477 635.769ZM715.534 635.769C712.747 635.769 708.714 634.595 703.434 632.249C698.154 629.755 693.241 626.895 688.694 623.669C684.294 620.295 681.801 617.435 681.214 615.089C680.481 611.862 679.161 598.369 677.254 574.609C676.667 565.075 676.154 558.109 675.714 553.709C675.421 549.895 675.127 547.035 674.834 545.129C672.927 525.475 671.974 511.249 671.974 502.449C671.974 492.622 673.074 487.415 675.274 486.829C675.861 486.682 676.814 486.609 678.134 486.609C681.361 486.609 685.321 487.415 690.014 489.029C694.854 490.495 699.107 492.402 702.774 494.749C706.441 497.095 708.567 499.369 709.154 501.569C709.447 502.449 709.594 505.749 709.594 511.469C709.594 519.535 709.374 529.435 708.934 541.169C708.347 560.235 708.054 574.975 708.054 585.389V593.309C720.521 566.029 734.454 529.435 749.854 483.529C754.254 482.062 758.727 481.329 763.274 481.329C769.287 481.329 774.347 482.942 778.454 486.169C782.707 489.395 785.494 494.309 786.814 500.909C745.601 590.815 721.841 635.769 715.534 635.769ZM903.452 481.769C906.239 483.382 908.292 485.655 909.612 488.589C911.079 491.375 911.812 494.455 911.812 497.829C911.812 500.762 911.225 503.695 910.052 506.629C908.879 509.562 907.339 511.982 905.432 513.889C886.512 514.182 870.745 514.915 858.132 516.089C855.639 525.035 853.292 535.009 851.092 546.009C865.759 544.835 878.152 543.075 888.272 540.729C891.205 542.489 893.405 544.835 894.872 547.769C896.485 550.555 897.292 553.635 897.292 557.009C897.292 560.089 896.632 563.022 895.312 565.809C894.139 568.449 892.452 570.575 890.252 572.189C887.465 572.482 884.752 572.702 882.112 572.849C879.472 572.995 876.905 573.142 874.412 573.289L846.032 575.269L842.072 595.069L839.872 605.629C848.819 604.749 856.885 603.575 864.072 602.109C871.405 600.495 879.105 598.295 887.172 595.509C891.279 597.415 894.432 600.129 896.632 603.649C898.979 607.022 900.152 610.762 900.152 614.869C900.152 620.735 897.879 625.942 893.332 630.489C884.239 632.249 874.045 633.569 862.752 634.449C851.459 635.329 840.972 635.769 831.292 635.769C828.652 635.769 825.205 634.449 820.952 631.809C816.699 629.169 812.885 626.089 809.512 622.569C806.285 619.049 804.672 616.042 804.672 613.549C804.672 611.349 806.359 602.842 809.732 588.029C812.225 577.175 814.645 565.882 816.992 554.149C818.605 546.082 819.412 542.049 819.412 542.049C821.759 530.609 823.299 522.322 824.032 517.189L814.792 517.849C812.005 516.382 809.732 514.255 807.972 511.469C806.359 508.535 805.552 505.382 805.552 502.009C805.552 496.142 807.825 490.935 812.372 486.389C832.465 486.095 849.919 485.655 864.732 485.069C879.692 484.482 892.599 483.382 903.452 481.769ZM1028.13 481.769C1030.92 481.769 1034.66 483.015 1039.35 485.509C1044.19 488.002 1048.37 490.935 1051.89 494.309C1055.56 497.682 1057.39 500.615 1057.39 503.109C1057.39 504.429 1056 510.295 1053.21 520.709C1048.08 539.189 1044.27 555.322 1041.77 569.109C1040.31 577.762 1038.77 589.129 1037.15 603.209C1035.69 615.235 1034.37 623.669 1033.19 628.509C1032.17 633.349 1030.48 635.769 1028.13 635.769C1023.88 635.769 1018.89 634.009 1013.17 630.489C1007.6 626.822 1002.76 622.349 998.653 617.069C996.453 614.135 993.373 608.415 989.413 599.909C985.453 591.402 981.567 581.869 977.753 571.309C974.087 560.602 971.3 550.629 969.393 541.389L967.853 569.109C966.387 577.762 964.847 589.129 963.233 603.209C961.767 615.235 960.447 623.669 959.273 628.509C958.247 633.349 956.56 635.769 954.213 635.769C950.84 635.769 946.807 634.595 942.113 632.249C937.567 629.755 933.533 626.822 930.013 623.449C926.64 620.075 924.953 617.289 924.953 615.089C924.807 612.742 925.467 607.829 926.933 600.349C928.547 592.722 929.573 587.809 930.013 585.609C930.6 582.675 931.7 577.322 933.313 569.549C934.927 561.629 936.247 554.295 937.273 547.549L939.033 537.209C941.82 520.782 944.387 507.435 946.733 497.169C949.227 486.902 951.72 481.769 954.213 481.769C956.707 481.769 960.08 482.869 964.333 485.069C968.733 487.122 972.693 489.689 976.213 492.769C979.88 495.849 982.227 498.782 983.253 501.569C990.147 520.049 998.58 544.982 1008.55 576.369L1011.19 547.549L1012.95 537.209C1015.74 520.782 1018.31 507.435 1020.65 497.169C1023.15 486.902 1025.64 481.769 1028.13 481.769ZM1192.06 481.769C1194.85 483.382 1196.9 485.655 1198.22 488.589C1199.69 491.375 1200.42 494.455 1200.42 497.829C1200.42 500.762 1199.84 503.695 1198.66 506.629C1197.49 509.562 1195.95 511.982 1194.04 513.889C1191.84 513.742 1188.54 513.669 1184.14 513.669C1181.36 513.669 1176.3 513.815 1168.96 514.109L1157.3 514.329C1158.04 510.075 1156.28 519.975 1152.02 544.029L1147.62 569.109C1146.16 577.762 1144.62 589.129 1143 603.209C1141.54 615.235 1140.22 623.669 1139.04 628.509C1138.02 633.349 1136.33 635.769 1133.98 635.769C1130.61 635.769 1126.58 634.595 1121.88 632.249C1117.34 629.755 1113.3 626.822 1109.78 623.449C1106.41 620.075 1104.72 617.289 1104.72 615.089C1104.58 611.715 1106.34 601.742 1110 585.169C1112.79 571.235 1114.77 560.895 1115.94 554.149C1115.94 554.442 1117.12 548.355 1119.46 535.889C1121.52 524.742 1122.76 517.922 1123.2 515.429L1088.88 519.609C1086.1 518.142 1083.82 516.015 1082.06 513.229C1080.45 510.295 1079.64 507.142 1079.64 503.769C1079.64 497.902 1081.92 492.695 1086.46 488.149C1094.82 486.975 1105.24 486.242 1117.7 485.949C1130.32 485.509 1137.8 485.215 1140.14 485.069C1155.54 484.629 1166.76 484.262 1173.8 483.969C1180.99 483.529 1187.08 482.795 1192.06 481.769ZM1261.45 479.569C1272.16 479.569 1282.28 482.135 1291.81 487.269C1301.49 492.402 1309.19 499.222 1314.91 507.729C1320.78 516.089 1323.71 524.815 1323.71 533.909C1323.71 548.135 1319.9 563.389 1312.27 579.669C1304.64 595.802 1294.96 609.369 1283.23 620.369C1271.64 631.369 1260.2 636.869 1248.91 636.869C1243.04 636.869 1236.44 634.449 1229.11 629.609C1221.92 624.622 1215.76 618.755 1210.63 612.009C1205.5 605.115 1202.93 599.029 1202.93 593.749C1202.93 585.389 1205.42 571.015 1210.41 550.629C1215.4 530.095 1220.02 514.989 1224.27 505.309C1229.11 503.842 1233.66 503.109 1237.91 503.109C1240.84 503.109 1243.19 503.402 1244.95 503.989C1244.66 498.562 1245.98 493.575 1248.91 489.029C1251.84 484.482 1256.02 481.329 1261.45 479.569ZM1238.79 606.729C1252.87 601.595 1264.68 591.769 1274.21 577.249C1283.74 562.582 1290.49 546.522 1294.45 529.069C1290.34 526.135 1284.99 523.715 1278.39 521.809C1271.94 519.902 1264.97 518.875 1257.49 518.729C1257.78 520.195 1258.08 522.395 1258.37 525.329C1244.88 550.555 1238.35 577.689 1238.79 606.729ZM1426.45 637.089C1416.04 631.075 1406.8 623.595 1398.73 614.649C1390.67 605.702 1384.14 595.509 1379.15 584.069L1378.27 593.309C1376.81 607.535 1375.34 618.169 1373.87 625.209C1372.55 632.249 1370.65 635.769 1368.15 635.769C1364.78 635.769 1360.75 634.522 1356.05 632.029C1351.51 629.535 1347.47 626.602 1343.95 623.229C1340.58 619.855 1338.89 617.069 1338.89 614.869C1338.89 611.055 1342.49 591.622 1349.67 556.569C1350.55 552.462 1351.95 545.495 1353.85 535.669C1355.91 525.695 1357.3 518.509 1358.03 514.109L1349.89 515.429C1345.35 511.175 1343.07 505.822 1343.07 499.369C1343.07 494.822 1344.32 490.129 1346.81 485.289C1358.69 482.209 1370.72 480.669 1382.89 480.669C1395.8 480.669 1407.75 482.355 1418.75 485.729C1429.9 489.102 1438.92 494.309 1445.81 501.349C1452.71 508.242 1456.15 516.895 1456.15 527.309C1456.15 539.482 1451.39 549.969 1441.85 558.769C1432.32 567.422 1418.31 573.215 1399.83 576.149C1407.17 583.042 1414.5 588.615 1421.83 592.869C1429.31 596.975 1438.7 600.935 1449.99 604.749C1450.58 607.095 1450.87 609.662 1450.87 612.449C1450.87 619.195 1448.82 624.769 1444.71 629.169C1440.61 633.569 1434.52 636.209 1426.45 637.089ZM1383.33 554.809C1394.92 553.635 1404.38 550.555 1411.71 545.569C1419.19 540.582 1422.93 534.642 1422.93 527.749C1422.93 523.349 1420.73 519.682 1416.33 516.749C1412.08 513.669 1406.29 512.129 1398.95 512.129C1396.31 512.129 1393.45 512.349 1390.37 512.789C1388.03 526.282 1386.93 532.735 1387.07 532.149C1385.75 539.335 1384.51 546.889 1383.33 554.809ZM1583.35 525.329C1581.89 527.235 1576.24 534.495 1566.41 547.109C1556.59 559.722 1546.25 572.335 1535.39 584.949L1532.97 604.969C1531.8 616.262 1530.63 624.255 1529.45 628.949C1528.43 633.495 1526.74 635.769 1524.39 635.769C1521.02 635.769 1516.99 634.595 1512.29 632.249C1507.75 629.755 1503.71 626.822 1500.19 623.449C1496.82 620.075 1495.13 617.289 1495.13 615.089C1494.99 612.449 1495.43 608.709 1496.45 603.869C1497.63 598.882 1499.61 590.669 1502.39 579.229L1503.93 573.289C1502.91 570.942 1499.02 562.875 1492.27 549.089C1486.7 538.089 1482.52 529.362 1479.73 522.909C1476.95 516.309 1475.55 511.249 1475.55 507.729C1475.55 505.235 1477.17 502.302 1480.39 498.929C1483.77 495.555 1487.73 492.695 1492.27 490.349C1496.97 487.855 1501.15 486.609 1504.81 486.609C1507.6 486.609 1509.8 489.102 1511.41 494.089C1513.03 498.929 1515.08 507.435 1517.57 519.609C1519.92 532.369 1522.27 543.075 1524.61 551.729C1538.55 527.969 1550.28 505.455 1559.81 484.189C1564.65 482.869 1568.98 482.209 1572.79 482.209C1580.42 482.209 1586.29 484.482 1590.39 489.029C1594.65 493.575 1596.92 499.735 1597.21 507.509L1583.35 525.329Z" fill="#1E1E1E"/>
</svg>
